<mxfile host="65bd71144e">
    <diagram id="iCTtjRoXZP5vJnnh4Emv" name="Page-1">
        <mxGraphModel dx="218" dy="349" grid="1" gridSize="10" guides="1" tooltips="1" connect="1" arrows="1" fold="1" page="1" pageScale="1" pageWidth="1169" pageHeight="1654" math="0" shadow="0">
            <root>
                <mxCell id="0"/>
                <mxCell id="1" parent="0"/>
                <mxCell id="frslQYdsG6ZobFGlUZUp-3" style="edgeStyle=orthogonalEdgeStyle;rounded=0;orthogonalLoop=1;jettySize=auto;html=1;exitX=0.5;exitY=1;exitDx=0;exitDy=0;entryX=0.5;entryY=0;entryDx=0;entryDy=0;" parent="1" source="frslQYdsG6ZobFGlUZUp-1" target="frslQYdsG6ZobFGlUZUp-2" edge="1">
                    <mxGeometry relative="1" as="geometry"/>
                </mxCell>
                <mxCell id="frslQYdsG6ZobFGlUZUp-1" value="Start" style="ellipse;whiteSpace=wrap;html=1;" parent="1" vertex="1">
                    <mxGeometry x="450" y="20" width="90" height="30" as="geometry"/>
                </mxCell>
                <mxCell id="frslQYdsG6ZobFGlUZUp-6" style="edgeStyle=orthogonalEdgeStyle;rounded=0;orthogonalLoop=1;jettySize=auto;html=1;exitX=0.5;exitY=1;exitDx=0;exitDy=0;entryX=0.5;entryY=0;entryDx=0;entryDy=0;" parent="1" source="frslQYdsG6ZobFGlUZUp-2" target="frslQYdsG6ZobFGlUZUp-5" edge="1">
                    <mxGeometry relative="1" as="geometry"/>
                </mxCell>
                <mxCell id="frslQYdsG6ZobFGlUZUp-2" value="array = [&quot;1234&quot;, &quot;5678&quot;, &quot;-2&quot;, &quot;computer science&quot;]" style="shape=parallelogram;perimeter=parallelogramPerimeter;whiteSpace=wrap;html=1;fixedSize=1;" parent="1" vertex="1">
                    <mxGeometry x="348.75" y="80" width="292.5" height="60" as="geometry"/>
                </mxCell>
                <mxCell id="frslQYdsG6ZobFGlUZUp-10" style="edgeStyle=orthogonalEdgeStyle;rounded=0;orthogonalLoop=1;jettySize=auto;html=1;exitX=1;exitY=0.5;exitDx=0;exitDy=0;" parent="1" source="frslQYdsG6ZobFGlUZUp-4" target="frslQYdsG6ZobFGlUZUp-8" edge="1">
                    <mxGeometry relative="1" as="geometry"/>
                </mxCell>
                <mxCell id="frslQYdsG6ZobFGlUZUp-18" style="edgeStyle=orthogonalEdgeStyle;rounded=0;orthogonalLoop=1;jettySize=auto;html=1;exitX=0.5;exitY=1;exitDx=0;exitDy=0;entryX=0.5;entryY=0;entryDx=0;entryDy=0;" parent="1" source="frslQYdsG6ZobFGlUZUp-4" target="frslQYdsG6ZobFGlUZUp-14" edge="1">
                    <mxGeometry relative="1" as="geometry"/>
                </mxCell>
                <mxCell id="frslQYdsG6ZobFGlUZUp-4" value="index &amp;lt; array.length?" style="rhombus;whiteSpace=wrap;html=1;" parent="1" vertex="1">
                    <mxGeometry x="417.5" y="270" width="155" height="140" as="geometry"/>
                </mxCell>
                <mxCell id="frslQYdsG6ZobFGlUZUp-11" style="edgeStyle=orthogonalEdgeStyle;rounded=0;orthogonalLoop=1;jettySize=auto;html=1;exitX=0.5;exitY=1;exitDx=0;exitDy=0;entryX=0.5;entryY=0;entryDx=0;entryDy=0;" parent="1" source="frslQYdsG6ZobFGlUZUp-5" target="frslQYdsG6ZobFGlUZUp-4" edge="1">
                    <mxGeometry relative="1" as="geometry"/>
                </mxCell>
                <mxCell id="frslQYdsG6ZobFGlUZUp-5" value="index = 0&lt;br&gt;newArray = []&lt;br&gt;k = 0" style="rounded=0;whiteSpace=wrap;html=1;" parent="1" vertex="1">
                    <mxGeometry x="423.75" y="160" width="142.5" height="50" as="geometry"/>
                </mxCell>
                <mxCell id="frslQYdsG6ZobFGlUZUp-25" style="edgeStyle=orthogonalEdgeStyle;rounded=0;orthogonalLoop=1;jettySize=auto;html=1;exitX=0.5;exitY=1;exitDx=0;exitDy=0;entryX=0.5;entryY=0;entryDx=0;entryDy=0;" parent="1" source="frslQYdsG6ZobFGlUZUp-8" target="frslQYdsG6ZobFGlUZUp-24" edge="1">
                    <mxGeometry relative="1" as="geometry"/>
                </mxCell>
                <mxCell id="frslQYdsG6ZobFGlUZUp-8" value="print(newArray)" style="rounded=0;whiteSpace=wrap;html=1;" parent="1" vertex="1">
                    <mxGeometry x="641.25" y="315" width="110" height="50" as="geometry"/>
                </mxCell>
                <mxCell id="frslQYdsG6ZobFGlUZUp-12" value="Yes" style="text;html=1;strokeColor=none;fillColor=none;align=center;verticalAlign=middle;whiteSpace=wrap;rounded=0;" parent="1" vertex="1">
                    <mxGeometry x="450" y="410" width="60" height="30" as="geometry"/>
                </mxCell>
                <mxCell id="frslQYdsG6ZobFGlUZUp-13" value="No" style="text;html=1;strokeColor=none;fillColor=none;align=center;verticalAlign=middle;whiteSpace=wrap;rounded=0;" parent="1" vertex="1">
                    <mxGeometry x="581.25" y="310" width="60" height="30" as="geometry"/>
                </mxCell>
                <mxCell id="frslQYdsG6ZobFGlUZUp-16" style="edgeStyle=orthogonalEdgeStyle;rounded=0;orthogonalLoop=1;jettySize=auto;html=1;exitX=0.5;exitY=1;exitDx=0;exitDy=0;entryX=0.5;entryY=0;entryDx=0;entryDy=0;" parent="1" source="frslQYdsG6ZobFGlUZUp-14" target="frslQYdsG6ZobFGlUZUp-15" edge="1">
                    <mxGeometry relative="1" as="geometry"/>
                </mxCell>
                <mxCell id="frslQYdsG6ZobFGlUZUp-20" style="edgeStyle=orthogonalEdgeStyle;rounded=0;orthogonalLoop=1;jettySize=auto;html=1;exitX=0;exitY=0.5;exitDx=0;exitDy=0;" parent="1" source="frslQYdsG6ZobFGlUZUp-14" edge="1">
                    <mxGeometry relative="1" as="geometry">
                        <mxPoint x="350" y="525" as="targetPoint"/>
                    </mxGeometry>
                </mxCell>
                <mxCell id="frslQYdsG6ZobFGlUZUp-14" value="lenElement &amp;lt;=3?" style="rhombus;whiteSpace=wrap;html=1;" parent="1" vertex="1">
                    <mxGeometry x="405" y="450" width="180" height="150" as="geometry"/>
                </mxCell>
                <mxCell id="frslQYdsG6ZobFGlUZUp-22" style="edgeStyle=orthogonalEdgeStyle;rounded=0;orthogonalLoop=1;jettySize=auto;html=1;exitX=0;exitY=0.5;exitDx=0;exitDy=0;entryX=0.5;entryY=1;entryDx=0;entryDy=0;" parent="1" source="frslQYdsG6ZobFGlUZUp-15" target="frslQYdsG6ZobFGlUZUp-19" edge="1">
                    <mxGeometry relative="1" as="geometry"/>
                </mxCell>
                <mxCell id="frslQYdsG6ZobFGlUZUp-15" value="newArray[k] = array[index]&amp;nbsp;" style="rounded=0;whiteSpace=wrap;html=1;" parent="1" vertex="1">
                    <mxGeometry x="420" y="660" width="150" height="60" as="geometry"/>
                </mxCell>
                <mxCell id="frslQYdsG6ZobFGlUZUp-17" value="Yes" style="text;html=1;strokeColor=none;fillColor=none;align=center;verticalAlign=middle;whiteSpace=wrap;rounded=0;" parent="1" vertex="1">
                    <mxGeometry x="450" y="610" width="60" height="30" as="geometry"/>
                </mxCell>
                <mxCell id="frslQYdsG6ZobFGlUZUp-23" style="edgeStyle=orthogonalEdgeStyle;rounded=0;orthogonalLoop=1;jettySize=auto;html=1;exitX=0.5;exitY=0;exitDx=0;exitDy=0;" parent="1" source="frslQYdsG6ZobFGlUZUp-19" edge="1">
                    <mxGeometry relative="1" as="geometry">
                        <mxPoint x="495" y="240" as="targetPoint"/>
                        <Array as="points">
                            <mxPoint x="299" y="240"/>
                            <mxPoint x="438" y="240"/>
                        </Array>
                    </mxGeometry>
                </mxCell>
                <mxCell id="frslQYdsG6ZobFGlUZUp-19" value="index = index + 1&lt;br&gt;k = k+1" style="rounded=0;whiteSpace=wrap;html=1;" parent="1" vertex="1">
                    <mxGeometry x="230" y="505" width="118.75" height="40" as="geometry"/>
                </mxCell>
                <mxCell id="frslQYdsG6ZobFGlUZUp-21" value="No" style="text;html=1;strokeColor=none;fillColor=none;align=center;verticalAlign=middle;whiteSpace=wrap;rounded=0;" parent="1" vertex="1">
                    <mxGeometry x="348.75" y="500" width="60" height="30" as="geometry"/>
                </mxCell>
                <mxCell id="frslQYdsG6ZobFGlUZUp-24" value="Stop" style="ellipse;whiteSpace=wrap;html=1;" parent="1" vertex="1">
                    <mxGeometry x="649.38" y="400" width="93.75" height="40" as="geometry"/>
                </mxCell>
            </root>
        </mxGraphModel>
    </diagram>
</mxfile>